<svg xmlns="http://www.w3.org/2000/svg" version="1.1" xmlns:xlink="http://www.w3.org/1999/xlink" xmlns:svgjs="http://svgjs.com/svgjs" viewBox="0 0 140 140" width="140" height="140">
  <g transform="matrix(5.833333333333333,0,0,5.833333333333333,0,0)">
    <path d="M3.06,23.06A1.5,1.5,0,0,1,.939,20.94L7.51,14.367l2.121,2.122Z" fill="none" stroke="#9A9A9A" stroke-linecap="round" stroke-linejoin="round"></path>
    <path d="M6.451 13.306L10.691 17.549" fill="none" stroke="#9A9A9A" stroke-linecap="round" stroke-linejoin="round"></path>
    <path d="M19.91 4.101L8.572 15.428" fill="none" stroke="#9A9A9A" stroke-linecap="round" stroke-linejoin="round"></path>
    <path d="M21.785,4.359a1,1,0,0,1-1.508.109l-.812-.811A1,1,0,0,1,19.6,2.128L21.816.589a.5.5,0,0,1,.639.057l.9.9A.5.5,0,0,1,23.4,2.2Z" fill="none" stroke="#9A9A9A" stroke-linecap="round" stroke-linejoin="round"></path>
    <path d="M11.586,9.586l-3.44-3.44A4,4,0,0,0,4.5.5a4.049,4.049,0,0,0-.822.084.5.5,0,0,0-.251.843L4.854,2.854A.5.5,0,0,1,5,3.207V4.5a.5.5,0,0,1-.5.5H3.207a.5.5,0,0,1-.353-.146L1.427,3.427a.5.5,0,0,0-.843.251A4.049,4.049,0,0,0,.5,4.5,4,4,0,0,0,6.146,8.146l3.44,3.44" fill="none" stroke="#9A9A9A" stroke-linecap="round" stroke-linejoin="round"></path>
    <path d="M14.414,12.414l3.44,3.44A4,4,0,0,1,23.5,19.5a4.049,4.049,0,0,1-.084.822.5.5,0,0,1-.843.251l-1.427-1.427A.5.5,0,0,0,20.793,19H19.5a.5.5,0,0,0-.5.5v1.293a.5.5,0,0,0,.146.353l1.427,1.427a.5.5,0,0,1-.251.843,4.049,4.049,0,0,1-.822.084,4,4,0,0,1-3.646-5.646l-3.44-3.44" fill="none" stroke="#9A9A9A" stroke-linecap="round" stroke-linejoin="round"></path>
  </g>
</svg>