<?xml version="1.0" encoding="utf-8"?>
<!-- Generator: Adobe Illustrator 24.0.3, SVG Export Plug-In . SVG Version: 6.00 Build 0)  -->
<svg version="1.1" id="Layer_1" xmlns="http://www.w3.org/2000/svg" xmlns:xlink="http://www.w3.org/1999/xlink" x="0px" y="0px"
	 viewBox="0 0 595.3 572.1" style="enable-background:new 0 0 595.3 572.1;" xml:space="preserve">
<style type="text/css">
	.st0{fill:#FFFFFF;}
	.st1{fill:#00FF00;}
	.st2{fill:#010101;}
</style>
<g>
	<g>
		<path class="st0" d="M294.4,284.3c14.6,15.3,56.8,58.6,63.8,65.7l8.3-5.6c0,0-58.1-60.3-58.1-60.1v-0.2l56-57.5l-8.6-5.2
			l-61.3,62.7V284.3z"/>
	</g>
	<g>
		<path class="st0" d="M276,292.4c1.8,1.8,3.5,3.6,5.2,5.4c-10.9,11.3-42.8,44.4-46,47.8l8.5,5.7c0.7-0.8,36.1-37.4,44.5-46.2
			c9.1,9.5,43,45.3,43.6,46l10.3-6.7c0,0-43.5-44.8-58.1-60.1v-0.2c3.4-3.6,51.9-53.4,56-57.5l-9.7-5.9c0,0-37.3,39.2-41.3,43.3
			c0,0-41.1-43.2-41.3-43.5l-8.8,5.3c6.4,6.8,36.2,38.2,43,45.4c-1.9,1.9-3.6,3.7-5.4,5.4c-8.2-8.7-45.8-48.3-53.2-56.1l-10.4,6.2
			c9.6,9.6,47.1,48.5,55.7,57.7v0.2c-13.3,13.9-57.5,59.1-58.8,60.2l9.5,6.4C219.2,351.3,263.2,305.7,276,292.4z"/>
	</g>
	<g>
		<path class="st0" d="M182.1,440l124.4-0.1c2.6,0.2,28.6-0.4,32.2-1.7c66.5-10,113.6-72.5,114.3-151.9
			c0.8-79.4-46.2-141.9-113.4-151.8c-4.5-1.5-30.6-2.1-32.7-1.9l-124.8,0c-19.8,0-35.8,16.1-35.8,35.8l-0.1,235.7
			C146.2,423.9,162.3,440,182.1,440z M173.2,178.5c0.1-7,0.8-12.3,4.7-16.1c3.4-3.3,9.9-5,15.6-5c1.6,0,4.5,0,102.7,0.5
			c3.1-0.2,31,0.6,34.7,1.3l0.6,0.1c56.9,9.5,94,58.9,94.4,125.8C425.5,352,388.4,401.4,331,411c-3.5,0.7-31.7,1.5-35.2,1.3l-98,0.1
			c-18.5,0-24-4.8-24.6-21.5c0-1.5,0-28,0.1-61.7C173.4,202.9,173.2,179.9,173.2,178.5z"/>
	</g>
	<g>
		<polygon class="st0" points="14.6,558.9 14.6,12.8 560,12.8 594.8,12.8 594.9,0 0.2,0 -0.2,571.7 -0.2,572.1 594.4,572.1 
			594.5,558.9 560,558.9 		"/>
	</g>
	<polygon class="st1" points="560,12.8 560,12.8 560,558.5 560,558.9 594.5,558.9 594.9,558.9 594.9,12.8 594.8,12.8 	"/>
	<g>
		<path class="st2" d="M14.6,558.9H560v-0.3V12.8v0H14.6V558.9z M146.3,168.5c0-19.8,16.1-35.8,35.8-35.8l124.8,0
			c2.1-0.2,28.1,0.4,32.7,1.9c67.2,9.9,114.2,72.4,113.4,151.8c-0.8,79.4-47.8,141.9-114.3,151.9c-3.6,1.3-29.6,1.8-32.2,1.7
			L182.1,440c-19.8,0-35.8-16.1-35.8-35.8L146.3,168.5z"/>
	</g>
	<g>
		<path class="st2" d="M173.2,390.9c0.6,16.6,6.1,21.4,24.6,21.5l98-0.1c3.5,0.3,31.8-0.5,35.2-1.3c57.4-9.6,94.5-59,94.9-125.9
			c-0.4-66.8-37.5-116.2-94.4-125.8l-0.6-0.1c-3.7-0.7-31.6-1.5-34.7-1.3c-98.2-0.5-101-0.5-102.7-0.5c-5.7,0-12.2,1.7-15.6,5
			c-4,3.8-4.6,9.1-4.7,16.1c0,1.4,0.2,24.4,0,150.7C173.2,362.9,173.1,389.4,173.2,390.9z M364.3,226.6l-56,57.5v0.2
			c0-0.2,58.1,60.1,58.1,60.1l-8.3,5.6c-7-7.1-49.2-50.4-63.8-65.7v-0.2l61.3-62.7L364.3,226.6z M268.5,284.7v-0.2
			c-8.6-9.2-46.1-48.1-55.7-57.7l10.4-6.2c7.4,7.8,45,47.4,53.2,56.1c1.7-1.8,3.5-3.5,5.4-5.4c-6.8-7.2-36.6-38.7-43-45.4l8.8-5.3
			c0.2,0.3,41.3,43.5,41.3,43.5c4-4.1,41.3-43.3,41.3-43.3l9.7,5.9c-4,4.1-52.6,53.9-56,57.5v0.2c14.6,15.3,58.1,60.1,58.1,60.1
			l-10.3,6.7c-0.5-0.7-34.5-36.5-43.6-46c-8.4,8.8-43.8,45.4-44.5,46.2l-8.5-5.7c3.2-3.3,35.2-36.4,46-47.8
			c-1.7-1.8-3.5-3.6-5.2-5.4c-12.8,13.3-56.8,58.9-56.8,58.9l-9.5-6.4C211,343.8,255.2,298.6,268.5,284.7z"/>
	</g>
</g>
</svg>
