<svg width="50" height="49" viewBox="0 0 50 49" fill="none" xmlns="http://www.w3.org/2000/svg">
<g filter="url(#filter0_d)">
<rect x="5" y="40" width="40" height="40" rx="20" transform="rotate(-90 5 40)" fill="#121212"/>
<rect x="5" y="40" width="40" height="40" rx="20" transform="rotate(-90 5 40)" fill="white" fill-opacity="0.05"/>
<path d="M15.2925 15.9591L19.2879 11.9593C19.6481 11.5986 20.2152 11.5706 20.6076 11.8753L20.7018 11.9584L24.7067 15.9583C25.0974 16.3485 25.0978 16.9816 24.7076 17.3724C24.3474 17.7331 23.7802 17.7612 23.3878 17.4565L23.2935 17.3733L21.0004 15.0829L21.0004 25.6661C21.0004 26.1789 20.6144 26.6015 20.1171 26.6593L20.0005 26.666C19.4877 26.666 19.0651 26.28 19.0073 25.7827L19.0006 25.6661L19.0006 15.0759L16.7073 17.3725C16.3471 17.7331 15.7799 17.7612 15.3875 17.4564L15.2932 17.3732C14.9326 17.013 14.9046 16.4458 15.2094 16.0533L15.2925 15.9591Z" fill="#6BFF57"/>
<path d="M30 11.666L29.8834 11.6727C29.386 11.7305 29 12.1533 29 12.6662L29 23.2483L26.7068 20.9574L26.6125 20.8742C26.2201 20.5693 25.6529 20.5973 25.2926 20.958C24.9022 21.3488 24.9025 21.9821 25.2932 22.3725L29.297 26.3734L29.3912 26.4566C29.7837 26.7615 30.3509 26.7335 30.7112 26.3727L34.7074 22.3719L34.7906 22.2776C35.0954 21.8851 35.0674 21.3177 34.7068 20.9574L34.6125 20.8742C34.2201 20.5693 33.6529 20.5973 33.2926 20.958L31 23.2523L31 12.6662L30.9933 12.5496C30.9355 12.0521 30.5128 11.666 30 11.666Z" fill="#EAFFE5"/>
</g>
<defs>
<filter id="filter0_d" x="0.555555" y="0" width="48.8889" height="48.8889" filterUnits="userSpaceOnUse" color-interpolation-filters="sRGB">
<feFlood flood-opacity="0" result="BackgroundImageFix"/>
<feColorMatrix in="SourceAlpha" type="matrix" values="0 0 0 0 0 0 0 0 0 0 0 0 0 0 0 0 0 0 127 0"/>
<feOffset dy="4.44444"/>
<feGaussianBlur stdDeviation="2.22222"/>
<feColorMatrix type="matrix" values="0 0 0 0 0 0 0 0 0 0 0 0 0 0 0 0 0 0 0.25 0"/>
<feBlend mode="normal" in2="BackgroundImageFix" result="effect1_dropShadow"/>
<feBlend mode="normal" in="SourceGraphic" in2="effect1_dropShadow" result="shape"/>
</filter>
</defs>
</svg>
