<svg xmlns="http://www.w3.org/2000/svg" xmlns:xlink="http://www.w3.org/1999/xlink" width="93.343" height="56" viewBox="0 0 93.343 56">
  <defs>
    <filter id="Path_3350" x="0" y="0" width="93.343" height="56" filterUnits="userSpaceOnUse">
      <feOffset dy="2" input="SourceAlpha"/>
      <feGaussianBlur stdDeviation="1" result="blur"/>
      <feFlood flood-opacity="0.161"/>
      <feComposite operator="in" in2="blur"/>
      <feComposite in="SourceGraphic"/>
    </filter>
  </defs>
  <g id="Group_9763" data-name="Group 9763" transform="translate(-97 -969.001)">
    <g transform="matrix(1, 0, 0, 1, 97, 969)" filter="url(#Path_3350)">
      <path id="Path_3350-2" data-name="Path 3350" d="M124.745,137.3c.018-.649.031-1.307.031-1.984a2,2,0,0,0-4.007,0q0,2.236-.139,4.234c-.3,2.794-1.2,5.271-2.448,6.537a3,3,0,0,1-4.54-.12c-1.915-2.148-2.5-6.868-2.092-10.421a2,2,0,0,0-3.981-.459,24.892,24.892,0,0,0,0,5.533c-.017.161-.036.323-.056.485-.867,6.963-3.845,8.424-6.191,8.424a6.958,6.958,0,0,1-2.185-.42l.115-.129a13.8,13.8,0,0,0,3.59-8.793,7.148,7.148,0,0,0-1.61-4.772,6.367,6.367,0,0,0-5.038-2.1,6.233,6.233,0,0,0-5.361,3.008,11.174,11.174,0,0,0-.427,10.282,10.093,10.093,0,0,0,1.6,2.448,8.144,8.144,0,0,1-2.628.479c-2.814,0-6.874-3.454-9.212-5.95a34.059,34.059,0,0,0,6.7-7.11,2,2,0,0,0-3.277-2.306,29.341,29.341,0,0,1-6.936,7.031l.015-5.873a2,2,0,0,0-2-2.009h-.005a2,2,0,0,0-2,2l-.03,11.742-.115-.093c-.087-.069-.174-.136-.261-.2q-.22-.172-.442-.341l-.27-.2q-.234-.174-.471-.344l-.238-.17q-.3-.21-.6-.413l-.12-.082q-.382-.255-.77-.5l-.049-.03q-.354-.222-.713-.437l-.173-.1q-.3-.18-.613-.353l-.195-.109q-.314-.174-.632-.341l-.168-.089q-.389-.2-.782-.4l-.01,0-.192-.091c-.19-.091-.38-.182-.572-.27-.13-.06-.262-.118-.393-.176s-.268-.119-.4-.177l-.4-.168c-.15-.063-.3-.123-.453-.184-.082-.033-.162-.067-.244-.1l-.1-.037c-.171-.066-.344-.13-.516-.194a34.905,34.905,0,0,0,3.168-4.738,24.311,24.311,0,0,0,2.749-7.495A16.7,16.7,0,0,0,68.871,125a15.019,15.019,0,0,0-.347-2.151,13.29,13.29,0,0,0-.694-2.094A12.865,12.865,0,0,0,66.8,118.8a13.7,13.7,0,0,0-1.315-1.742c-.242-.267-.484-.535-.743-.779s-.518-.488-.785-.72a14.352,14.352,0,0,0-1.737-1.286,12.74,12.74,0,0,0-4.109-1.688,12.593,12.593,0,0,0-4.455-.135,14.433,14.433,0,0,0-4.135,1.282,16.152,16.152,0,0,0-3.545,2.322,14.793,14.793,0,0,0-2.843,3.246,11.007,11.007,0,0,0-1.038,2.085,7.736,7.736,0,0,0-.488,2.6v.014a2.474,2.474,0,1,0,4.947,0v-.01a2.874,2.874,0,0,1,.19-.913,6.083,6.083,0,0,1,.568-1.128,9.9,9.9,0,0,1,1.89-2.143,10.462,10.462,0,0,1,5.171-2.459,7.634,7.634,0,0,1,2.7.078,7.792,7.792,0,0,1,2.512,1.039,10.624,10.624,0,0,1,2.192,1.873,8.742,8.742,0,0,1,.851,1.127,7.911,7.911,0,0,1,.649,1.226,8.853,8.853,0,0,1,.663,2.718,11.769,11.769,0,0,1-.157,2.956,19.436,19.436,0,0,1-2.207,5.952,31.066,31.066,0,0,1-3.851,5.422c-.071.081-.145.16-.217.241-.166-.032-.332-.063-.5-.092l-.382-.064q-.24-.039-.48-.074c-.083-.012-.165-.027-.248-.038-.059-.008-.118-.014-.177-.022-.152-.02-.3-.038-.457-.056s-.283-.034-.425-.049q-.408-.042-.818-.074H54c-.092-.007-.184-.011-.276-.016-.2-.012-.4-.024-.6-.033-.136-.006-.272-.009-.409-.013q-.252-.007-.505-.01c-.127,0-.255,0-.383,0-.206,0-.413,0-.62.011-.088,0-.175,0-.263.007q-.932.035-1.867.14l-.166.02q-.366.044-.731.1c-.047.007-.094.012-.142.019s-.1.019-.155.028c-.086.014-.172.026-.258.041-.121.021-.242.047-.362.071-.1.02-.208.039-.313.061q-.4.082-.789.179l-.109.025c-.305.077-.61.162-.913.252-.07.021-.139.044-.208.066q-.343.107-.684.225c-.043.015-.087.027-.13.043s-.11.044-.166.064q-.3.11-.6.231c-.1.042-.206.083-.309.127-.2.086-.4.177-.6.271-.074.034-.149.064-.222.1l-.051.026q-.394.191-.78.4l-.039.022-.052.027-.232.133-.045.025-.05.029-.125.071-.026.016-.2.119a5.561,5.561,0,0,0-.72.539,6.727,6.727,0,0,0-2.43,4.394,5.887,5.887,0,0,0,.074,1.781c0,.021.007.042.012.063.017.085.038.168.06.253,0,.017.007.034.012.052s.009.028.012.042c.022.08.045.159.071.238.013.04.027.079.041.118.025.073.051.146.08.218.043.109.09.218.141.325l0,.006c.005.012.012.022.018.034.041.085.083.17.128.252.01.018.021.036.032.054s.03.05.045.076q.075.128.156.251l.057.084q.079.114.163.224l.063.083q.1.132.215.257l.018.021,0,0c.079.088.161.172.243.254l.075.072c.061.058.123.116.186.171l.09.077q.092.077.185.15l.091.07c.069.051.138.1.208.149l.059.042.013.008c.1.064.193.124.292.183l.033.018q.129.075.261.144l.085.043c.037.018.073.038.11.056l.051.022c.158.075.317.143.479.2l.014,0c.165.062.332.117.5.165l.058.017q.245.068.493.117l.113.021c.051.009.1.02.152.028.111.018.222.032.334.045l.016,0c.165.017.331.026.5.032l.127,0c.145,0,.291,0,.437-.007l.045,0,.105-.008q.224-.016.448-.048l.078-.01.031,0c.117-.02.235-.039.351-.066l.158-.035H45.3l.038-.009.018,0,.017-.005.058-.015a22.558,22.558,0,0,0,3.807-1.335,32.931,32.931,0,0,0,6.632-4.046,39.609,39.609,0,0,0,3.622-3.177l.057.015q.224.062.447.127l.29.085q.342.1.682.215l.162.055q.3.1.6.207l.218.08c.19.07.379.141.567.215l.139.055q.342.136.681.279l.044.018c.306.13.61.267.912.407q.492.229.977.474l.194.1q.549.283,1.088.586l.109.062q.559.318,1.105.657h0c.359.224.712.457,1.062.695l.16.11q.509.351,1,.721l.1.078q.448.339.884.7l.177.143q.451.373.887.764c.069.061.137.124.2.186.3.272.593.547.88.83l.007.007.018.016a1.992,1.992,0,0,0,1.041.528,2.017,2.017,0,0,0,.432.049h.005a2,2,0,0,0,2-2l.015-5.909c2.2,2.476,7.614,7.908,12.734,7.908a12.791,12.791,0,0,0,6.246-1.618,12.353,12.353,0,0,0,5.7,1.618c3.827,0,6.782-2.1,8.548-5.911a9.294,9.294,0,0,0,.777,1.006,6.992,6.992,0,0,0,5.334,2.44,6.879,6.879,0,0,0,1.987-.29,16.127,16.127,0,0,1-.877,1.523c-2.638,4.041-6.789,6.006-12.691,6.006a2,2,0,0,0,0,4.008c7.26,0,12.659-2.632,16.047-7.823,2.372-3.635,3.75-8.475,4.18-14.713A22.973,22.973,0,0,0,124.745,137.3ZM47.213,147.787a17.671,17.671,0,0,1-2.975,1.048l-.093.024-.01,0a1.6,1.6,0,0,1-.25.038c-.02,0-.04.005-.06.006a1.847,1.847,0,0,1-.265-.007l-.056-.006a1.831,1.831,0,0,1-.27-.052l-.021-.007a1.63,1.63,0,0,1-.237-.09l-.051-.023-.044-.024c-.032-.017-.062-.035-.091-.053l-.049-.032c-.028-.019-.053-.039-.077-.059l-.028-.023a.934.934,0,0,1-.149-.164l-.009-.015a.537.537,0,0,1-.03-.052l-.009-.021a.408.408,0,0,1-.018-.048l-.005-.016a.9.9,0,0,1-.016-.339,1.907,1.907,0,0,1,.653-1.13c.086-.069.182-.128.273-.2.025-.017.036-.031.067-.051l.024-.015.006,0,.119-.073c.08-.048.159-.1.241-.144q.289-.167.587-.323c.066-.034.133-.065.2-.1.147-.073.295-.145.445-.213.075-.034.151-.067.227-.1q.223-.1.45-.187l.217-.085q.262-.1.529-.189l.146-.05q.349-.114.706-.215l.071-.018q.31-.085.626-.159c.082-.019.164-.036.246-.054.163-.036.326-.07.49-.1l.228-.042q.3-.052.595-.1l.124-.018q.752-.1,1.519-.152l.2-.01q.26-.014.522-.022l.309-.007q.213,0,.426,0c.113,0,.225,0,.338,0l.133,0c-.093.074-.185.149-.279.221A28.016,28.016,0,0,1,47.213,147.787Zm48.353-.8a6.576,6.576,0,0,1-1.509-2.043,7.245,7.245,0,0,1,.149-6.455,2.263,2.263,0,0,1,1.992-1.169,2.538,2.538,0,0,1,2.01.722,3.345,3.345,0,0,1,.63,2.146A8.952,8.952,0,0,1,95.566,146.988Z" transform="translate(-34.43 -111.32)" fill="#17936f"/>
    </g>
    <path id="Path_3351" data-name="Path 3351" d="M182.846,297.409a.309.309,0,0,0-.3.319v1.515l-1.163-1.637a.369.369,0,0,0-.313-.189h-.063a.31.31,0,0,0-.3.323v2.338a.3.3,0,1,0,.6,0V298.5l1.207,1.7a.37.37,0,0,0,.313.188h.02a.31.31,0,0,0,.3-.323v-2.338A.309.309,0,0,0,182.846,297.409Z" transform="translate(-44.728 719.508)" fill="#17936f"/>
    <path id="Path_3352" data-name="Path 3352" d="M198.844,299.9H197.6v-.617h1.046a.278.278,0,0,0,.27-.286.281.281,0,0,0-.27-.289H197.6v-.6h1.222a.277.277,0,0,0,.27-.286.281.281,0,0,0-.27-.289H197.3a.31.31,0,0,0-.3.323v2.292a.31.31,0,0,0,.3.323h1.539a.277.277,0,0,0,.27-.285A.281.281,0,0,0,198.844,299.9Z" transform="translate(-56.972 719.407)" fill="#17936f"/>
    <path id="Path_3353" data-name="Path 3353" d="M211.886,297.536h-1.763a.3.3,0,0,0,0,.6h.58v2.044a.3.3,0,1,0,.6,0v-2.044h.58a.3.3,0,0,0,0-.6Z" transform="translate(-66.565 719.407)" fill="#17936f"/>
    <path id="Path_3354" data-name="Path 3354" d="M227.207,297.376a.306.306,0,0,0-.29.231l-.544,1.8-.549-1.784a.318.318,0,0,0-.306-.256h-.047a.322.322,0,0,0-.306.256l-.548,1.784-.545-1.8a.306.306,0,0,0-.6.084.448.448,0,0,0,.024.122l.768,2.308a.339.339,0,0,0,.313.264h.063a.33.33,0,0,0,.31-.264l.541-1.683.541,1.683a.33.33,0,0,0,.31.264h.063a.339.339,0,0,0,.313-.264l.768-2.308a.477.477,0,0,0,.024-.126A.3.3,0,0,0,227.207,297.376Z" transform="translate(-76.519 719.541)" fill="#17936f"/>
    <path id="Path_3355" data-name="Path 3355" d="M247.256,297.284a1.469,1.469,0,0,0-1.461,1.519v.008a1.458,1.458,0,1,0,2.914-.008v-.009A1.455,1.455,0,0,0,247.256,297.284Zm.822,1.527a.853.853,0,0,1-.823.915.867.867,0,0,1-.831-.923v-.009a.854.854,0,0,1,.823-.915.867.867,0,0,1,.83.924v.008Z" transform="translate(-93.395 719.608)" fill="#17936f"/>
    <path id="Path_3356" data-name="Path 3356" d="M265.131,297.536h-.952a.31.31,0,0,0-.3.323v2.317a.3.3,0,1,0,.6,0v-.642h.482l.587.8a.356.356,0,0,0,.3.168.29.29,0,0,0,.286-.3.39.39,0,0,0-.1-.248l-.419-.545a.9.9,0,0,0,.549-.894v-.008a.96.96,0,0,0-.235-.672A1.05,1.05,0,0,0,265.131,297.536Zm.423,1.011a.409.409,0,0,1-.462.416h-.611v-.844h.6c.294,0,.474.143.474.42Z" transform="translate(-107.039 719.407)" fill="#17936f"/>
    <path id="Path_3357" data-name="Path 3357" d="M280.226,298.723l.772-.772a.333.333,0,0,0,.11-.244.282.282,0,0,0-.278-.3.331.331,0,0,0-.255.126l-1.113,1.184v-.986a.3.3,0,1,0-.6,0v2.342a.3.3,0,1,0,.6,0v-.587l.345-.344.784,1.1a.3.3,0,0,0,.56-.159.358.358,0,0,0-.082-.227Z" transform="translate(-118.259 719.508)" fill="#17936f"/>
  </g>
</svg>
