<?xml version="1.0" encoding="UTF-8"?>
<svg width="45px" height="44px" viewBox="0 0 45 44" version="1.1" xmlns="http://www.w3.org/2000/svg" xmlns:xlink="http://www.w3.org/1999/xlink">
    <!-- Generator: Sketch 52.2 (67145) - http://www.bohemiancoding.com/sketch -->
    <title>Group</title>
    <desc>Created with Sketch.</desc>
    <defs>
        <linearGradient x1="17.7682959%" y1="-33.3768948%" x2="89.0108785%" y2="111.532698%" id="linearGradient-1">
            <stop stop-color="#FFB200" offset="0%"></stop>
            <stop stop-color="#FF578C" offset="100%"></stop>
        </linearGradient>
        <linearGradient x1="78.0631912%" y1="-130.225777%" x2="17.4322008%" y2="281.765493%" id="linearGradient-2">
            <stop stop-color="#FFB200" offset="0%"></stop>
            <stop stop-color="#FF578C" offset="100%"></stop>
        </linearGradient>
    </defs>
    <g id="Page-1" stroke="none" stroke-width="1" fill="none" fill-rule="evenodd">
        <g id="Desktop-HD" transform="translate(-226.000000, -203.000000)">
            <g id="Group" transform="translate(226.000000, 203.000000)">
                <path d="M30.2218168,22.3188406 L32.8498932,29.4682491 C33.0043631,29.8514348 33.082479,30.3117213 33.1594203,30.773747 C33.1594203,31.1580921 33.0830664,31.6177989 32.8498932,32.0027237 C32.6060001,32.320969 32.31951,32.6051015 31.9982532,32.8473553 C31.6094355,33.0780783 31.2223799,33.1540198 30.7577956,33.1540198 C29.5948665,33.2317004 28.5100534,32.4630102 28.2005263,31.3876556 L27.1145385,28.0844909 L17.1180473,28.0844909 L16.0332342,31.3111344 C15.7237071,32.4630102 14.638894,33.2317004 13.4759649,33.1540198 C12.7782075,33.1540198 12.158566,32.9238765 11.6158658,32.4630102 C11.1518688,32.0027237 10.8405797,31.3876556 10.8405797,30.773747 C10.9181083,30.2357798 10.9962243,29.7749136 11.1518688,29.4682491 L13.8381501,22.3188406 L12.5912271,22.3188406 C11.9792126,22.3188406 11.4782609,21.7449275 11.4782609,21.0434783 C11.4782609,20.342029 11.9792126,19.7681159 12.5912271,19.7681159 L14.7965461,19.7681159 L15.036145,19.1304348 L12.5912271,19.1304348 C11.9792126,19.1304348 11.4782609,18.5565217 11.4782609,17.8550725 C11.4782609,17.1536232 11.9792126,16.5797101 12.5912271,16.5797101 L15.994541,16.5797101 L18.2809764,10.4944723 C18.5905034,9.65042043 19.133791,8.95825149 19.7528452,8.42086404 C20.373074,7.88289689 21.2258886,7.65217391 22.0781159,7.65217391 C22.9297559,7.65217391 23.7831579,7.88289689 24.4022121,8.42086404 C25.1005568,8.95825149 25.5657285,9.72694162 25.8752555,10.4944723 L28.1121496,16.5797101 L32.0464541,16.5797101 C32.6584686,16.5797101 33.1594203,17.1536232 33.1594203,17.8550725 C33.1594203,18.5565217 32.6584686,19.1304348 32.0464541,19.1304348 L29.0497795,19.1304348 L29.284187,19.7681159 L32.0464541,19.7681159 C32.6584686,19.7681159 33.1594203,20.342029 33.1594203,21.0434783 C33.1594203,21.7449275 32.6584686,22.3188406 32.0464541,22.3188406 L30.2218168,22.3188406 Z M44,22 C44,34.1503684 34.1497895,44 22,44 C9.84963158,44 0,34.1503684 0,22 C0,9.84963158 9.84963158,0 22,0 C34.1497895,0 44,9.84963158 44,22 Z M41.4492754,22 C41.4492754,11.2588517 32.7411483,2.55072464 22,2.55072464 C11.2582796,2.55072464 2.55072464,11.2582796 2.55072464,22 C2.55072464,32.7417204 11.2582796,41.4492754 22,41.4492754 C32.7411483,41.4492754 41.4492754,32.7417204 41.4492754,22 Z M21.9596728,12.7536232 L18.4927536,22.9565217 L25.5072464,22.9565217 L21.9596728,12.7536232 Z" id="Logo" fill="url(#linearGradient-1)"></path>
            </g>
        </g>
    </g>
</svg>