<?xml version="1.0" encoding="UTF-8"?>
<svg width="300px" height="300px" viewBox="0 0 300 300" version="1.1" xmlns="http://www.w3.org/2000/svg" xmlns:xlink="http://www.w3.org/1999/xlink">
    <!-- Generator: Sketch 52.6 (67491) - http://www.bohemiancoding.com/sketch -->
    <title>AirSwap-Icon</title>
    <desc>Created with Sketch.</desc>
    <g id="AirSwap-Icon" stroke="none" stroke-width="1" fill="none" fill-rule="evenodd">
        <path d="M225.647841,224.453642 L150,299.850993 L112.475083,262.450331 C152.924751,260.074669 192.000498,246.955629 225.647841,224.453642 Z" id="Path" fill="#2B71FF"></path>
        <path d="M297.358804,147.019868 L288.089701,137.831126 L150,0.149006623 L11.8604651,137.831126 L0,149.652318 L4.28571429,153.327815 C9.11960133,157.350993 14.10299,161.175497 19.2358804,164.751656 C73.8538206,203.096026 141.578073,214.668874 204.119601,199.42053 C229.640532,193.263576 253.878738,182.689073 275.730897,168.178808 C281.162791,164.602649 286.445183,160.728477 291.627907,156.655629 C294.451993,154.370861 297.242691,152.036424 300,149.652318 L297.358804,147.019868 Z M186.428571,181.639073 C145.231395,156.411755 97.7860465,143.149172 49.4352159,143.344371 C112.425249,115.976821 189.717608,112.251656 260.581395,152.880795 C237.982724,167.196854 212.791694,176.966722 186.428571,181.639073 Z" id="Shape" fill="#2B71FF" fill-rule="nonzero"></path>
    </g>
</svg>