<svg width="49" height="48" viewBox="0 0 49 48" fill="none" xmlns="http://www.w3.org/2000/svg">
<g clip-path="url(#clip0)">
<path d="M24.3584 0.461853C11.4366 0.461853 0.961914 10.9261 0.961914 23.835C0.961914 36.7439 11.4366 47.2082 24.3584 47.2082C37.2801 47.2082 47.7549 36.7439 47.7549 23.835C47.7549 10.9264 37.2799 0.461853 24.3584 0.461853ZM33.9803 33.5971L24.2044 39.2451V39.2471H24.2004L14.4184 33.5971V14.0527L14.4286 14.0588L24.1963 8.42289L30.4658 11.9177H30.4678V20.7408L27.4171 18.9904V13.6763L24.2004 11.8449L17.4671 15.7343V31.9357L24.2004 35.8251L30.9337 31.9478L30.9661 25.29L21.3989 19.7452L24.4718 18.1303L34.0046 23.6832L33.9803 33.5991V33.5971ZM26.0437 23.1996L28.3996 24.5534L21.3989 28.5359V20.5061L23.858 21.955V24.3652L26.0458 23.1996H26.0437Z" fill="#516FFA"/>
</g>
<defs>
<clipPath id="clip0">
<rect x="0.961914" y="0.461853" width="47.0499" height="47.0499" fill="white"/>
</clipPath>
</defs>
</svg>
