<svg xmlns="http://www.w3.org/2000/svg" viewBox="-6 -5 120 120"><defs><style>.cls-1{fill:#fff;}.cls-2{fill:#ff4724;}.cls-3{fill:#9e1f63;}.cls-4{fill:#662d91;}</style></defs><title>BAT_UI_Logo</title><g id="Layer_2" data-name="Layer 2"><g id="Layer_1-2" data-name="Layer 1"><polygon class="cls-1" points="26.1 72.34 74.39 72.34 50.24 30.62 26.1 72.34"/><path class="cls-2" d="M50.25,0a2.31,2.31,0,0,0-2,1.16L.31,84a2.32,2.32,0,0,0,0,2.32l29.28-17,20.66-35.7Z"/><path class="cls-3" d="M100.18,84,52.25,1.16a2.31,2.31,0,0,0-2-1.16V33.63L70.9,69.33l29.28,17A2.32,2.32,0,0,0,100.18,84Z"/><path class="cls-4" d="M100.18,86.29l-29.28-17H29.59L.31,86.29a2.32,2.32,0,0,0,2,1.16H98.17A2.32,2.32,0,0,0,100.18,86.29Z"/></g></g></svg>