<svg width="332" height="283" viewBox="0 0 332 283" fill="none" xmlns="http://www.w3.org/2000/svg">
<path fill-rule="evenodd" clip-rule="evenodd" d="M39.7111 -9.76563e-05H153.99C223.503 -9.76563e-05 276.194 37.3625 295.797 91.7296H331.395V124.59H303.293C303.844 129.782 304.124 135.073 304.124 140.448V141.255C304.124 147.306 303.769 153.255 303.074 159.081H331.395V191.941H295.119C275 245.552 222.717 282.558 153.99 282.558H39.7111V191.941H2.44141e-05V159.081H39.7111V124.59H2.44141e-05V91.7296H39.7111V-9.76563e-05ZM71.6589 191.941V253.08H153.99C204.796 253.08 242.543 228.593 260.114 191.941H71.6589ZM269.901 159.081H71.6589V124.59H269.952C270.687 130.018 271.062 135.581 271.062 141.255V142.062C271.062 147.866 270.67 153.548 269.901 159.081ZM153.99 29.4293C205.03 29.4293 242.89 54.5623 260.355 91.7296H71.6589V29.4293H153.99Z" fill="black"/>
</svg>
