<?xml version="1.0" encoding="utf-8"?>
<svg id="master-artboard" viewBox="0 0 1400 1400" version="1.1" xmlns="http://www.w3.org/2000/svg" x="0px" y="0px" style="enable-background:new 0 0 1400 980;" width="1400px" height="1400px"><rect id="ee-background" x="0" y="0" width="1400" height="1400" style="fill: white; fill-opacity: 0; pointer-events: none;"/><defs><style id="ee-google-fonts">@import url(https://fonts.googleapis.com/css?family=Roboto:100,100italic,300,300italic,400,400italic,500,500italic,700,700italic,900,900italic);</style></defs>























































































































<path d="M 260.79998779296875 86.19999694824219" style="fill: rgb(23, 168, 247); fill-opacity: 1; stroke: rgb(0, 0, 0); stroke-opacity: 1; stroke-width: 0; paint-order: fill;"/><g transform="matrix(13.825732235991746, 0, 0, 13.825732235991746, -8314.37763911906, -627.270386207942)"><g id="g-1" transform="matrix(1, 0, 0, 1, 0, 0)">
	<g id="g-2">
		<path class="st0" d="M652,46c27.6,0,50,22.4,50,50s-22.4,50-50,50s-50-22.4-50-50S624.4,46,652,46z" style="fill: rgb(15, 26, 34); stroke: rgb(209, 158, 56); stroke-width: 1;"/>
	</g>
</g></g><g transform="matrix(2.7300135385038407, 0, 0, 2.7300135385038407, 108.56769009346043, 527.0537174659706)"><linearGradient id="SVGID_1_" gradientUnits="userSpaceOnUse" x1="87.5184" y1="192.4045" x2="345.8321" y2="-65.9091">
	<stop offset="0" style="stop-color:#C08329"/>
	<stop offset="0.6" style="stop-color:#EDC74F"/>
	<stop offset="1" style="stop-color:#FDEB8D"/>
</linearGradient><path class="st0" d="M269.9,103l8.7,7.9c-9.6,6.9-21.3,10.9-33.9,10.9c-32.2,0-58.3-26.1-58.3-58.3c0-10.8,2.9-20.9,8-29.5l9.9,9&#10;&#9;c4.6,4.2,6.5,10.1,5.7,15.9c-0.2,1.5-0.3,3-0.3,4.6c0,19.3,15.7,35,35,35c2.3,0,4.6-0.2,6.8-0.7C258.1,96.5,265,98.6,269.9,103z&#10;&#9; M244.6,5.1c-12.7,0-24.4,4-33.9,10.9l8.7,7.9c4.8,4.4,11.8,6.5,18.5,5.2c2.2-0.4,4.5-0.7,6.8-0.7c19.3,0,35,15.7,35,35&#10;&#9;c0,1.6-0.1,3.1-0.3,4.6c-0.8,5.9,1.2,11.8,5.7,15.9l9.9,9c5.1-8.7,8-18.8,8-29.5C303,31.2,276.8,5.1,244.6,5.1z M80,98.2H16.7v23.3&#10;&#9;h96.7l-16.2-16.2C92.6,100.8,86.5,98.2,80,98.2z M97.3,21.2l16.1-16.1V5H16.7v23.3h63.5C86.6,28.3,92.8,25.7,97.3,21.2z M55.1,51.6&#10;&#9;H16.7v23.3h38.5V51.6z M160.3,5c-5,0-9.8,2-13.3,5.5l-36.3,36.3L94.2,63.3l16.5,16.5L147,116c3.5,3.5,8.3,5.5,13.3,5.5h25.2&#10;&#9;l-58.3-58.3L185.5,5H160.3z M317.9,70.9v50.7h23.3v-17.3c0-6.4-2.6-12.6-7.1-17.1L317.9,70.9z M393.3,4.9v65.5L317.9,4.9v25.4&#10;&#9;c0,3.4,1.5,6.6,4,8.8l94.8,82.5v-24v-6.8V4.9H393.3z" style="fill: url('#SVGID_1_');"/></g></svg>