<?xml version="1.0" encoding="utf-8"?>
<svg id="master-artboard" viewBox="0 0 1400 1400" version="1.1" xmlns="http://www.w3.org/2000/svg" x="0px" y="0px" style="enable-background:new 0 0 1400 980;" width="1400px" height="1400px"><rect id="ee-background" x="0" y="0" width="1400" height="1400" style="fill: white; fill-opacity: 0; pointer-events: none;"/><defs><style id="ee-google-fonts">@import url(https://fonts.googleapis.com/css?family=Fjalla+One:400|Roboto:100,100italic,300,300italic,400,400italic,500,500italic,700,700italic,900,900italic);</style><style id="style-1">@import url(https://fonts.googleapis.com/css?family=Roboto:100,100italic,300,300italic,400,400italic,500,500italic,700,700italic,900,900italic);</style><linearGradient x1="-88.5003526%" y1="50%" x2="100%" y2="50%" id="linearGradient-1">
            <stop stop-color="#CC992B" offset="0%"/>
            <stop stop-color="#EED572" offset="100%"/>
        </linearGradient><linearGradient x1="-88.5003526%" y1="50%" x2="100%" y2="50%" id="linearGradient-2">
            <stop stop-color="#CC992B" offset="0%"/>
            <stop stop-color="#EED572" offset="100%"/>
        </linearGradient><linearGradient x1="-88.5003526%" y1="50%" x2="100%" y2="50%" id="linearGradient-3">
            <stop stop-color="#CC992B" offset="0%"/>
            <stop stop-color="#EED572" offset="100%"/>
        </linearGradient><linearGradient x1="-88.5003526%" y1="50%" x2="100%" y2="50%" id="linearGradient-4">
            <stop stop-color="#CC992B" offset="0%"/>
            <stop stop-color="#EED572" offset="100%"/>
        </linearGradient></defs>











































<g transform="matrix(0.9999999999999999, 0, 0, 0.9999999999999999, 1.8189894035458565e-12, 4.547473508864641e-13)">
		<path class="st13" d="M448.4,599.9" style="fill: rgb(223, 243, 251);"/>
	</g>





















































<g transform="matrix(13.827595209071877, 0, 0, 13.827595209071877, -8315.59190083879, -627.4492011060565)"><g id="g-3" transform="matrix(1, 0, 0, 1, 0, 0)">
	<g id="g-4">
		<path class="st0" d="M652,46c27.6,0,50,22.4,50,50s-22.4,50-50,50s-50-22.4-50-50S624.4,46,652,46z" style="fill: rgb(15, 26, 34); stroke: rgb(220, 182, 77); paint-order: fill; stroke-width: 1;"/>
	</g>
</g></g><g transform="matrix(27.51189335974696, 0, 0, 27.51189335974696, 258.56198263880464, 396.19560513983083)"><title>ekg_logo</title><desc>Created with Sketch.</desc><g id="Homepage" stroke="none" stroke-width="1" fill="none" fill-rule="evenodd">
        <g transform="translate(-193.000000, -525.000000)" id="Group">
            <g transform="translate(161.000000, 496.000000)">
                <g id="ekg_logo" transform="translate(32.000000, 29.000000)">
                    <path d="M 26.089731216430664 0.0425967238843441 L 15.489075660705566 10.948563575744629 L 15.482255935668945 10.948563575744629 L 26.082386016845703 21.855318069458008 L 31.8392391204834 21.855318069458008 L 21.23832130432129 10.948563575744629 L 21.245403289794922 10.948563575744629 L 31.84632110595703 0.0425967238843441 Z" id="Fill-1" fill="url(#linearGradient-1)"/>
                    <path d="M 0 0.00010491803550394252 L 0 3.977285385131836 L 13.750556945800781 3.977285385131836 L 17.727476119995117 0.00010491803550394252 Z" id="Fill-2" fill="url(#linearGradient-2)"/>
                    <path d="M 0 17.821874618530273 L 0 21.799318313598633 L 17.727476119995117 21.799318313598633 L 13.750556945800781 17.821874618530273 Z" id="Fill-3" fill="url(#linearGradient-3)"/>
                    <path d="M 0 12.937783241271973 L 9.071212768554688 12.937783241271973 L 9.071212768554688 8.96034049987793 L 0 8.96034049987793 Z" id="Fill-4" fill="url(#linearGradient-4)"/>
                </g>
            </g>
        </g>
    </g></g></svg>