<?xml version="1.0" encoding="utf-8"?>
<svg id="master-artboard" viewBox="0 0 1400 1400" version="1.1" xmlns="http://www.w3.org/2000/svg" x="0px" y="0px" style="enable-background:new 0 0 1400 980;" width="1400px" height="1400px"><rect id="ee-background" x="0" y="0" width="1400" height="1400" style="fill: white; fill-opacity: 0; pointer-events: none;"/><defs><style id="ee-google-fonts">@import url(https://fonts.googleapis.com/css?family=Roboto:100,100italic,300,300italic,400,400italic,500,500italic,700,700italic,900,900italic);</style></defs>























































































































<g transform="matrix(13.825732235991746, 0, 0, 13.825732235991746, -8314.37763911906, -627.270386207942)"><g id="g-1" transform="matrix(1, 0, 0, 1, 0, 0)">
	<g id="g-2">
		<path class="st0" d="M652,46c27.6,0,50,22.4,50,50s-22.4,50-50,50s-50-22.4-50-50S624.4,46,652,46z" style="fill: rgb(238, 238, 238); stroke: rgb(238, 238, 238); stroke-width: 1;"/>
	</g>
</g></g><path d="M 260.79998779296875 86.19999694824219" style="fill: rgb(23, 168, 247); fill-opacity: 1; stroke: rgb(0, 0, 0); stroke-opacity: 1; stroke-width: 0; paint-order: fill;"/><g transform="matrix(2.564362808709518, 0, 0, 2.564362808709518, 371.7615910027598, 165.2931368485386)"><path fill="#343434" d="M127.961 0l-2.795 9.5v275.668l2.795 2.79 127.962-75.638z"/><path fill="#8C8C8C" d="M127.962 0L0 212.32l127.962 75.639V154.158z"/><path fill="#3C3C3B" d="M127.961 312.187l-1.575 1.92v98.199l1.575 4.6L256 236.587z"/><path fill="#8C8C8C" d="M127.962 416.905v-104.72L0 236.585z"/><path fill="#141414" d="M127.961 287.958l127.96-75.637-127.96-58.162z"/><path fill="#393939" d="M0 212.32l127.96 75.638v-133.8z"/></g></svg>