<?xml version="1.0" encoding="UTF-8"?><svg xmlns="http://www.w3.org/2000/svg" xmlns:xlink="http://www.w3.org/1999/xlink" version="1.1" id="Layer_1" x="0px" y="0px" viewBox="0 0 128 128" xml:space="preserve"><path d="M95.8 92.3c.3-.2.5-.4.6-.7.1-.1.1-.3.2-.4.1-.3.1-.5 0-.8v-.1L86.8 45c0-.2-.1-.3-.2-.5v-.1c0-.1-.1-.2-.1-.2L66 16.2c-.4-.5-1-.8-1.6-.8-.6 0-1.2.3-1.6.8l-20.5 28c-.1.1-.1.2-.2.2v.1c-.1.2-.1.3-.2.5L32 90.2v.9c0 .1.1.3.1.4.2.3.4.6.7.8h.1l30.4 19c.3.2.7.3 1.1.3.4 0 .7-.1 1.1-.3l30.3-19c0 .1 0 .1 0 0zm-5.9-14.1L81.3 63l3.1-9.8 5.5 25zM66.3 23.6l16.3 22.2-4 12.5-12.3-21.8V23.6zm-2 17.5L77 63.4l-8 25.3h-9.2l-8-25.3 12.5-22.3zm-2-17.5v13L50 58.2l-4-12.5 16.3-22.1zM44.2 53.1l3.1 9.8-8.6 15.2 5.5-25zM49 68.2l6.5 20.5H37.3L49 68.2zm-8.1 24.5h15.9l4 12.5-19.9-12.5zm23.4 10.5L61 92.7h6.7l-3.4 10.5zm3.6 1.9l4-12.5h15.9l-19.9 12.5zm5.2-16.4l6.5-20.5 11.6 20.5H73.1z" fill="#121a44"/><path d="M64 0C28.7 0 0 28.7 0 64s28.7 64 64 64 64-28.7 64-64S99.3 0 64 0zm0 123C31.5 123 5 96.5 5 64S31.5 5 64 5s59 26.5 59 59-26.5 59-59 59z" fill="#121a44"/><path d="M50.6 15.8c-.3-1.1-1.5-1.6-2.5-1.3-13.2 4.3-24 13.4-30.3 25.8-6.3 12.4-7.5 26.4-3.2 39.7.3.8 1.1 1.4 1.9 1.4.2 0 .4 0 .6-.1 1.1-.3 1.6-1.5 1.3-2.5-3.9-12.2-2.9-25.2 3-36.6 5.9-11.4 15.8-19.9 28-23.8.9-.4 1.5-1.6 1.2-2.6z" fill="#121a44"/><path d="M113.5 48.1c-.3-1.1-1.5-1.6-2.5-1.3-1.1.3-1.6 1.5-1.3 2.5 3.9 12.2 2.9 25.2-3 36.6-5.9 11.4-15.8 19.9-28 23.8-1.1.3-1.6 1.5-1.3 2.5.3.8 1.1 1.4 1.9 1.4.2 0 .4 0 .6-.1 13.2-4.3 24-13.4 30.3-25.8 6.4-12.3 7.6-26.4 3.3-39.6z" fill="#121a44"/><metadata><rdf:RDF xmlns:rdf="http://www.w3.org/1999/02/22-rdf-syntax-ns#" xmlns:rdfs="http://www.w3.org/2000/01/rdf-schema#" xmlns:dc="http://purl.org/dc/elements/1.1/"><rdf:Description about="https://iconscout.com/legal#licenses" dc:title="eos" dc:description="eos" dc:publisher="Iconscout" dc:date="2018-01-14" dc:format="image/svg+xml" dc:language="en"><dc:creator><rdf:Bag><rdf:li>Icon Mafia</rdf:li></rdf:Bag></dc:creator></rdf:Description></rdf:RDF></metadata></svg>