<svg xmlns="http://www.w3.org/2000/svg" width="500.002" height="500" viewBox="0 0 500.002 500">
  <g id="Group_581" data-name="Group 581" transform="translate(-2734.49 -1182.109)">
    <path id="Path_6" data-name="Path 6" d="M3234.492,1432.109c0,138.071-111.932,250-250,250s-250-111.929-250-250,111.926-250,250-250,250,111.929,250,250" transform="translate(0 0)" fill="#f8931f"/>
    <path id="Path_7" data-name="Path 7" d="M3072.223,1357.165l-8.039-27-37.9,9.142-18.111-60.834-45.037,10.862,34.27,115.128-.725.443-105.58-98.2-45.3,10.929,18.107,60.833-38.18,9.209,8.039,27,38.18-9.209,5.295,17.787-38.184,9.209,8.041,27,38.178-9.209,14.408,48.394,45.307-10.926L2910.711,1372.6l.732-.441,105.572,98.193,45.043-10.863-14.406-48.394,37.906-9.143-8.041-27-37.9,9.141-5.3-17.786Z" transform="translate(30.582 43.509)" fill="#fff"/>
  </g>
</svg>
