<svg xmlns="http://www.w3.org/2000/svg" viewBox="0 0 210.3 210.3">
	<path opacity=".73" fill="#00cdd7" d="M70.132 35.057L105.204-.015l35.072 35.072-35.072 35.072z" />
	<path opacity=".43" fill="#00cdd7" d="M70.152 175.273l35.072-35.072 35.072 35.072-35.072 35.072z" />
	<path opacity=".48" fill="#00cdd7" d="M39.72 148.349l47.91-12.837 12.836 47.909-47.909 12.836z" />
	<path opacity=".18" fill="#00cdd7" d="M109.82 26.951l47.908-12.836 12.837 47.908-47.909 12.837z" />
	<path opacity=".53" fill="#00cdd7" d="M14.07 157.737l12.836-47.909 47.91 12.837-12.837 47.908z" />
	<path opacity=".23" fill="#00cdd7" d="M135.443 87.603l12.836-47.909 47.91 12.837-12.837 47.908z" />
	<path opacity=".58" fill="#00cdd7" d="M.034 105.174L35.106 70.1l35.072 35.073-35.072 35.072z" />
	<path opacity=".28" fill="#00cdd7" d="M140.18 105.085l35.072-35.073 35.072 35.073-35.072 35.072z" />
	<path opacity=".63" fill="#00cdd7" d="M14.027 52.572l47.909-12.836 12.837 47.908-47.91 12.837z" />
	<path opacity=".33" fill="#00cdd7" d="M135.425 122.671l47.909-12.836 12.836 47.908-47.908 12.837z" />
	<path opacity=".68" fill="#00cdd7" d="M39.718 62.027L52.554 14.12l47.909 12.836-12.837 47.909z" />
	<path opacity=".38" fill="#00cdd7" d="M109.852 183.4l12.836-47.909 47.909 12.837-12.836 47.908z" />
</svg>