<svg xmlns="http://www.w3.org/2000/svg" width="2000" height="1617.63" viewBox="0 0 2000 1617.63"><g fill="#252836"><path d="M1983.6,432,1264.12,18a32.39,32.39,0,0,0-45.88,41.36l294.92,658.37A32.42,32.42,0,0,0,1556,734a31.37,31.37,0,0,0,2.89-1.47L1983.6,488.33a32.39,32.39,0,0,0,0-56.33Z"/><path d="m486.6 717.74l294.91-658.37a32.39 32.39 0 0 0 -45.88 -41.37l-719.47 414a32.39 32.39 0 0 0 0 56.05l424.68 244.23a32.43 32.43 0 0 0 44.32 -11.77c.53-.9 1-1.82 1.44-2.77"/><path d="M972.69,1598.49l-347.88-776a32.37,32.37,0,0,1,0-26.46L972.61,19.25a32.43,32.43,0,0,1,59.26,0L1375,798.34a32.42,32.42,0,0,1,0,26.18l-343.12,773.85a32.44,32.44,0,0,1-59.22.12Z"/></g></svg>