<?xml version="1.0" encoding="UTF-8"?>
<svg width="300px" height="300px" viewBox="0 0 59 59" version="1.1" xmlns="http://www.w3.org/2000/svg" xmlns:xlink="http://www.w3.org/1999/xlink">
    <path d="M50.5569301,29.014575 L42.5428219,42.8928489 C42.8504394,43.5590842 42.9089592,44.2649336 42.6842017,44.9882748 C42.3879775,45.941583 41.6199696,46.7369497 40.6505085,46.9967557 C39.3708405,47.3399055 38.1092982,46.8552772 37.396185,45.8386895 L21.7625891,45.8386895 C21.0266894,46.889232 19.7086987,47.371288 18.3927796,46.9602285 C17.4409262,46.6628664 16.7008835,45.8510367 16.4455714,44.8930983 C16.2705298,44.2381813 16.315067,43.6002416 16.57504,42.9905977 L8.51380528,29.0320669 C7.04355952,28.8370837 5.91770032,27.5745806 5.91770032,26.082625 C5.91770032,24.4934351 7.16474216,23.1861733 8.7328662,23.0961415 L16.5496642,9.56616207 C16.4134632,9.20809273 16.3404429,8.84333531 16.3404429,8.48526596 C16.3404429,6.83897013 17.6832915,5.49466669 19.3342754,5.49466669 C20.2736998,5.49466669 21.1447648,5.93350742 21.7128731,6.67176821 L37.4536691,6.67176821 C38.0145272,5.93350742 38.8907708,5.49466669 39.8307131,5.49466669 C41.4765183,5.49466669 42.8204027,6.83897013 42.8204027,8.48526596 C42.8204027,8.87883356 42.7308104,9.28320498 42.5656084,9.66030962 L50.3326904,23.1059164 C51.8593845,23.2407068 53.0660321,24.534078 53.0660321,26.082625 C53.0660321,27.5524585 52.0007643,28.7825502 50.5569301,29.014575 M58.2515097,23.5658503 L46.2394103,2.77519176 C45.2632168,1.08105045 43.4579062,0.0371959965 41.5050014,0.0371959965 L17.4813204,0.0371959965 C15.5289335,0.0371959965 13.7231051,1.08105045 12.7458758,2.77519176 L0.733776404,23.5658503 C-0.24448856,25.2599916 -0.24448856,27.3456426 0.733776404,29.0320669 L12.7458758,49.8278701 C13.7231051,51.5220114 15.5289335,52.5632935 17.4813204,52.5632935 L41.5050014,52.5632935 C43.4579062,52.5632935 45.2632168,51.5220114 46.2394103,49.8278701 L58.2515097,29.0320669 C59.2277031,27.3456426 59.2277031,25.2599916 58.2515097,23.5658503" fill="#21A0B4"></path>
    <path d="M47.9430103,24.0060801 L42.8916622,15.25859 L24.0710665,25.8170055 C24.0736559,25.8370697 24.0736559,25.8555905 24.0736559,25.8710246 C24.0736559,27.523494 22.731843,28.8657396 21.0870735,28.8657396 C19.4340181,28.8657396 18.0968661,27.523494 18.0968661,25.8710246 C18.0968661,24.2257577 19.4340181,22.8881423 21.0870735,22.8881423 C21.7748109,22.8881423 22.4335473,23.122225 22.9622972,23.5518053 L41.6342629,13.0741613 L40.6394259,11.3568689 C40.3737563,11.4324956 40.1003186,11.4715952 39.8310238,11.4715952 C38.447781,11.4715952 37.2602947,10.5126278 36.9350695,9.19147543 L22.224326,9.19147543 C21.9032438,10.5126278 20.7069536,11.4715952 19.3345862,11.4715952 C19.0331832,11.4715952 18.7281551,11.4268365 18.4376275,11.3337179 L11.0884702,24.0487809 C11.6120414,24.6085215 11.8973902,25.3220878 11.8973902,26.0829852 C11.8973902,26.9061331 11.5607718,27.6726896 10.965734,28.2370604 L16.5763865,37.9594662 L35.8257823,26.8176447 C35.8169784,26.7322431 35.8117997,26.6427257 35.8117997,26.551665 C35.8117997,24.9002245 37.1556841,23.5600368 38.8009714,23.5600368 C40.4514375,23.5600368 41.7870359,24.9002245 41.7870359,26.551665 C41.7870359,28.1989898 40.4514375,29.5381485 38.8009714,29.5381485 C38.1857365,29.5381485 37.6000204,29.3488245 37.0956106,28.9943564 L17.8337858,40.135149 L18.4806111,41.2556591 C18.7556025,41.1692286 19.0399156,41.1306436 19.3345862,41.1306436 C20.692971,41.1306436 21.8576708,42.0340484 22.207754,43.3217604 L36.9521594,43.3217604 C37.3685305,41.7901908 38.9962101,40.791095 40.593853,41.2371383 L48.0693716,28.2859348 C47.4479222,27.7272231 47.0885173,26.9231105 47.0885173,26.0829852 C47.0885173,25.3030525 47.3956169,24.5601615 47.9430103,24.0060801" fill="#21A0B4"></path>
</svg>