<?xml version="1.0" encoding="utf-8"?>
<!-- Generator: Adobe Illustrator 24.1.3, SVG Export Plug-In . SVG Version: 6.00 Build 0)  -->
<svg version="1.1" id="Layer_1" xmlns="http://www.w3.org/2000/svg" xmlns:xlink="http://www.w3.org/1999/xlink" x="0px" y="0px"
	 viewBox="0 0 125 125" style="enable-background:new 0 0 125 125;" xml:space="preserve">
<style type="text/css">
	.st0{fill:url(#SVGID_1_);}
	.st1{fill:#02143D;}
	.st2{font-family:'Sunflower-Bold';}
	.st3{font-size:29.0264px;}
	.st4{fill:#FFFFFF;}
</style>
<radialGradient id="SVGID_1_" cx="43.6991" cy="41.7144" r="76.7311" gradientUnits="userSpaceOnUse">
	<stop  offset="0" style="stop-color:#028BF4"/>
	<stop  offset="0.1537" style="stop-color:#0387EF"/>
	<stop  offset="0.3256" style="stop-color:#057CE2"/>
	<stop  offset="0.5063" style="stop-color:#0869CC"/>
	<stop  offset="0.6919" style="stop-color:#0D4FAD"/>
	<stop  offset="0.7802" style="stop-color:#10409B"/>
	<stop  offset="0.8383" style="stop-color:#143E8E"/>
	<stop  offset="0.9455" style="stop-color:#1F386C"/>
	<stop  offset="1" style="stop-color:#253558"/>
</radialGradient>
<path class="st0" d="M62.5,0C42.2,0,24.2,9.7,12.8,24.6C4.8,35.1,0,48.3,0,62.5C0,97,28,125,62.5,125c20.3,0,38.3-9.7,49.7-24.6
	c8-10.5,12.8-23.6,12.8-37.9C125,28,97,0,62.5,0z"/>
<text transform="matrix(1 0 0 1 49.7412 97.3672)" class="st1 st2 st3">SGD</text>
<g>
	<g>
		<path class="st4" d="M58,79.8c-2.1,0-3.2,0.7-3.2,2.1c0,0.6,0.3,1.1,0.8,1.4c0.3,0.2,0.7,0.4,1.3,0.6c0.6,0.2,1.4,0.5,2.4,0.8
			c1,0.3,1.8,0.6,2.4,1c0.7,0.3,1.2,0.7,1.6,1.1c0.4,0.4,0.7,0.9,0.9,1.5c0.2,0.6,0.3,1.3,0.3,2.1c0,1-0.2,2-0.5,2.7
			c-0.3,0.8-0.8,1.4-1.4,2c-0.6,0.5-1.3,0.9-2.1,1.2c-0.8,0.3-1.8,0.4-2.8,0.4c-1.5,0-3.4-0.2-5.5-0.7l-1-0.2l0.4-3.1
			c2.6,0.3,4.6,0.5,6,0.5c2.1,0,3.1-0.9,3.1-2.6c0-0.6-0.2-1.1-0.7-1.5c-0.5-0.3-1.5-0.7-2.8-1.1c-1.1-0.3-2.1-0.7-2.9-1
			c-0.8-0.4-1.4-0.8-1.9-1.2c-0.5-0.5-0.8-1-1-1.6c-0.2-0.6-0.3-1.3-0.3-2.1c0-2,0.6-3.5,1.8-4.4c1.2-1,2.8-1.4,4.9-1.4
			c0.7,0,1.5,0,2.4,0.1c0.9,0.1,1.9,0.2,3,0.4l1,0.2l-0.3,3.2c-1.4-0.2-2.5-0.3-3.5-0.3C59.3,79.8,58.5,79.8,58,79.8z"/>
		<path class="st4" d="M77.7,89.3h-1.8v-3.5h5.7V96c-1.4,0.2-2.6,0.4-3.8,0.5c-1.1,0.1-2.1,0.2-3,0.2c-1.5,0-2.8-0.2-3.8-0.6
			c-1-0.4-1.9-1-2.5-1.9c-0.6-0.8-1.1-1.9-1.3-3.2c-0.3-1.3-0.4-2.8-0.4-4.6s0.1-3.3,0.4-4.6c0.3-1.3,0.7-2.3,1.4-3.1
			c0.6-0.8,1.4-1.4,2.5-1.8c1-0.4,2.2-0.6,3.7-0.6c1.8,0,3.7,0.2,5.8,0.6l1,0.2l-0.1,3.1c-1.2-0.1-2.2-0.2-3.2-0.3
			c-0.9-0.1-1.8-0.1-2.5-0.1c-0.7,0-1.4,0-1.9,0.1c-0.5,0.1-0.9,0.2-1.3,0.4c-0.3,0.2-0.6,0.4-0.8,0.8c-0.2,0.3-0.4,0.7-0.5,1.2
			c-0.3,0.9-0.4,2.6-0.4,4.8c0,1.1,0.1,2.1,0.2,2.9c0.1,0.8,0.3,1.4,0.7,1.9c0.3,0.5,0.8,0.8,1.3,1c0.6,0.2,1.3,0.3,2.1,0.3l2.4-0.1
			V89.3z"/>
		<path class="st4" d="M92.1,96.4h-6.6V76.6h6.6c1.8,0,3.2,0.2,4.3,0.6c1.1,0.4,1.9,1,2.6,1.8c0.6,0.8,1,1.8,1.2,3
			c0.2,1.2,0.3,2.6,0.3,4.2c0,1.6-0.1,3-0.3,4.3c-0.2,1.3-0.6,2.3-1.2,3.2c-0.6,0.9-1.4,1.5-2.5,2C95.3,96.1,93.9,96.4,92.1,96.4z
			 M96.3,88.5c0-0.3,0-0.7,0-1.1c0-0.4,0-0.9,0-1.5c0-1.1,0-2-0.1-2.6c-0.1-0.6-0.3-1.2-0.6-1.8s-0.7-0.9-1.3-1.1
			c-0.6-0.2-1.3-0.3-2.3-0.3h-2.6v12.8h2.6c1.5,0,2.5-0.3,3.1-1C95.8,91.2,96.1,90.1,96.3,88.5z"/>
	</g>
</g>
<g>
	<g>
		<path class="st1" d="M21.7,96c-7-9-10.8-20.1-10.8-31.7c0-11.4,3.7-22.2,10.6-31.2c9.9-12.8,24.8-20.2,40.9-20.2
			c0.1,0,0.1,0,0.2,0c12.1,0,23.6,4.2,32.8,11.9l3.1-1.7C88.6,14.4,76,9.6,62.7,9.6c-17.2-0.1-33.2,7.8-43.7,21.5
			C11.6,40.7,7.6,52.2,7.6,64.3c0,12.2,3.9,23.9,11.2,33.4L21.7,96z"/>
		<path class="st1" d="M106.9,32.2l-2.9,1.6c6.6,8.9,10.1,19.5,10.1,30.8c0,11.4-3.7,22.2-10.6,31.2C93.6,108.7,78.7,116,62.5,116
			c-0.1,0-0.1,0-0.2,0c-11.7,0-22.9-4-31.9-11.2l-3,1.8c9.8,8.2,22,12.7,35,12.7c0.1,0,0.1,0,0.2,0c17.2,0,33.1-7.8,43.6-21.5
			c7.4-9.6,11.3-21.1,11.3-33.2C117.4,52.8,113.8,41.6,106.9,32.2z"/>
	</g>
	<polygon class="st1" points="98.6,21.1 98.6,23.1 96.8,21.8 	"/>
	<polygon class="st1" points="104,31.9 104,33.9 105.5,34.1 105.4,31.9 	"/>
	<polygon class="st1" points="21.7,94 21.7,96 20.2,96.1 19.9,94.4 	"/>
	<polygon class="st1" points="27.4,104.7 27.4,106.7 29.8,106.5 29.5,105.1 	"/>
</g>
<g>
	<path class="st4" d="M21.7,94c-7-9-10.8-20.1-10.8-31.7c0-11.4,3.7-22.2,10.6-31.2c9.9-12.8,24.8-20.2,40.9-20.2c0.1,0,0.1,0,0.2,0
		c12.1,0,23.6,4.2,32.8,11.9l3.1-1.7C88.6,12.4,76,7.6,62.7,7.6c-17.2-0.1-33.2,7.8-43.7,21.5C11.6,38.7,7.6,50.2,7.6,62.3
		c0,12.2,3.9,23.9,11.2,33.4L21.7,94z"/>
	<path class="st4" d="M106.9,30.2l-2.9,1.6c6.6,8.9,10.1,19.5,10.1,30.8c0,11.4-3.7,22.2-10.6,31.2C93.6,106.7,78.7,114,62.5,114
		c-0.1,0-0.1,0-0.2,0c-11.7,0-22.9-4-31.9-11.2l-3,1.8c9.8,8.2,22,12.7,35,12.7c0.1,0,0.1,0,0.2,0c17.2,0,33.1-7.8,43.6-21.5
		c7.4-9.6,11.3-21.1,11.3-33.2C117.4,50.8,113.8,39.6,106.9,30.2z"/>
</g>
<g>
	<polygon class="st1" points="54,69.7 45.5,69.7 36,81.8 30.3,69.7 21.7,69.7 30.9,86.3 16.4,103.9 25.1,103.9 34.3,92.3 40,103.9 
		48.4,103.9 39.4,87.8 	"/>
	<polygon class="st1" points="16.4,102.9 16.4,103.9 18,103.6 17.8,102.6 	"/>
	<polygon class="st1" points="48.4,102.9 48.4,103.9 46.9,102.7 	"/>
	<polygon class="st1" points="21.7,68.7 21.7,69.7 22.9,70.3 22.5,68.9 	"/>
	<polygon class="st1" points="54,68.7 54,69.7 52.4,69.9 	"/>
</g>
<polygon class="st4" points="54,68.7 45.5,68.7 36,80.8 30.3,68.7 21.7,68.7 30.9,85.3 16.4,102.9 25.1,102.9 34.3,91.3 40,102.9 
	48.4,102.9 39.4,86.7 "/>
<g>
	<path class="st4" d="M60.9,42.2c0.7-0.9,1.6-2,2.2-3.2c1-1.9,1.4-3.7,1.3-5.5c-0.1-1.2-0.4-2.2-1-3.1c-0.4-0.6-0.7-1-1-1.3
		c-0.5,0.3-1,0.4-1.5,0.5c0.2,0.8,0.2,1.5,0.1,2.2C60.9,33,60.6,34,60,34.8C59.1,36,58,37,56.5,38c-0.5,0.3-1,0.6-1.4,0.9
		c-0.5,0.3-0.9,0.5-1.3,0.8c-1.4,0.9-2.6,1.7-3.6,2.6c-1,0.8-2.2,1.9-3.1,3.3c-1.4,2.3-1.9,4.7-1.6,7.3c0.3,2.3,1,4.3,2.2,6
		c1.1,1.7,2.3,3.2,3.7,4.5c1.1,1,2.4,2,4.1,3.1l0.2,0.2c0-0.1,0-0.2-0.1-0.2c-0.2-1.5,0.1-3,1-4.3c0,0,0,0,0,0c0,0,0,0,0,0
		c-0.6-0.6-1.1-1.2-1.6-2c-0.8-1.3-1.2-2.7-1.3-4.2c-0.1-2.1,0.4-4.2,1.6-6.3c1-1.8,2.3-3.4,3.4-4.8c0.3-0.4,0.7-0.8,1-1.1
		C60.2,43.1,60.6,42.7,60.9,42.2z"/>
	<path class="st4" d="M70.5,41.8c0.8-1.3,1.3-2.4,1.5-3.5c0.2-1.1,0.2-2.1,0-3.1c-0.2-1.1-0.7-2.2-1.4-3.4c-0.9-1.4-2.1-2.6-3.6-3.4
		c-0.7-0.4-1.5-0.7-2.4-1c-0.1,0-0.1,0-0.1,0c0,0,0,0,0,0.1c-0.2,0.4-0.5,0.7-0.8,1c0,0-0.1,0.1-0.1,0.1c0,0,0.1,0.1,0.1,0.1
		c0.6,0.6,1,1.3,1.4,2c0.7,1.6,0.9,3.4,0.6,5.3c-0.3,1.5-0.8,3-1.7,4.6c-0.6,1.1-1.4,2.1-2.4,3.2c-1.6,1.7-3,3.4-4.2,5.1
		c-0.5,0.8-1.2,1.8-1.6,2.8c-0.5,1.3-0.8,2.4-0.8,3.4v0c0,0.7,0.1,1.3,0.2,2c0.4,1.5,1.1,2.9,2.2,4c0,0,0,0,0,0c0,0,0,0,0,0
		c0.6-0.9,1.4-1.7,2.4-2.6c1.2-1.1,2.6-2.1,4.1-3c-0.1-0.9-0.2-1.7-0.1-2.6c0.1-1,0.3-1.8,0.6-2.6c0.6-1.6,1.6-3,3-4.5
		C68.8,44.2,69.8,43,70.5,41.8z"/>
	<path class="st4" d="M65.3,54.6C65.3,54.6,65.3,54.6,65.3,54.6c1.4-0.7,2.6-1.3,3.7-1.8c0.5-0.2,1-0.5,1.6-0.7
		c0.9-0.4,1.9-0.8,2.8-1.3c0.8-0.4,1.6-0.8,2.2-1.5c1.1-1.1,2.1-2.4,2.7-3.9c0.9-2,1.3-4.1,1.3-5.8v0c0-1.3-0.1-2.4-0.2-3.5l0-0.1
		c-0.1-0.8-0.3-1.7-0.6-2.4c-0.7-1.6-1.7-3.2-3.2-4.7c-1.1-1.1-2.4-2.1-3.8-2.8c-0.7-0.4-1.6-0.8-2.5-1.1c-1.4-0.4-2.8-0.6-4.5-0.5
		c0,0.1,0.1,0.1,0.1,0.2C65,25.2,65,25.6,65,26c1.1,0.3,2,0.7,2.9,1.2c1.1,0.6,1.8,1.2,2.4,1.8c0.5,0.6,0.9,1.1,1.3,1.6
		c1,1.4,1.6,2.8,1.9,4.3c0.3,1.6,0.2,3.1-0.3,4.6c-0.5,1.4-1.2,2.7-2.4,4.4c-0.6,0.9-1.4,1.7-2.1,2.4c-0.2,0.2-0.4,0.4-0.6,0.7
		c-0.9,1-1.6,2-2.1,3.2C65.3,51.7,65.1,53.1,65.3,54.6C65.3,54.6,65.3,54.6,65.3,54.6z"/>
	<path class="st4" d="M62.5,27.5c0.6-0.5,0.9-0.9,1.1-1.4c0.2-0.5-0.1-1.1-0.6-1.4c-0.3-0.2-0.7-0.1-1.1-0.1l-0.1,0
		c-1.9,0-3.9,0-5.8,0h-1.6c-0.3,0.6-0.7,1-1.4,1c-0.6,0-1.1-0.3-1.3-0.8c-0.1-0.2-0.1-0.2-0.4-0.2c-1.3,0-2.6,0-3.9,0
		c-0.8,0-1.5,0.2-2.1,0.6c-0.5,0.4-0.8,0.8-0.8,1.4c0.2-0.1,0.5-0.2,0.7-0.2c0.1,0,0.1,0,0.2,0c0.1,0,0.3-0.1,0.4,0
		C46,26.5,46,26.7,46,27c0,0.2-0.1,0.4-0.4,0.4c-0.3,0.1-0.5,0.1-0.7,0.2c-0.4,0.1-0.6,0.3-0.8,0.6c-0.2,0.3-0.2,0.7-0.1,1
		c0.1,0.2,0.1,0.4,0.2,0.6c0.2,0.5,0.4,1.1,0.6,1.6c0.4-0.3,1-0.5,1.5-0.6c1.1-0.2,2.2-0.2,3.3,0c0.5,0.1,0.9,0.3,1.2,0.7
		c0.2,0.3,0.3,0.7,0.2,1c-0.1,0.4-0.4,0.8-0.8,1c-1.7,1-4.1,0.6-5.4-0.9c0,0,0,0,0,0c0,0,0,0,0,0c-0.3,0.6-0.4,1.3-0.5,2
		c0,1.2,0.3,2.2,1,3.2c0,0,0.1-0.1,0.1-0.1c0.6-0.8,1.5-1.2,2.7-1.3c0.7-0.1,1.4-0.1,2.1-0.1c0.4,0,0.8,0,1.1,0h0c0.4,0,0.8,0,1.2,0
		c0.8,0,1.6,0,2.5-0.1c2.7-0.4,4.6-2.5,4.7-5.2c0-0.8-0.2-1.6-0.5-2.4c-0.1-0.1-0.1-0.3,0-0.4c0.1-0.1,0.3-0.1,0.4-0.1
		C60.7,28.4,61.6,28.1,62.5,27.5z"/>
	<path class="st4" d="M79.7,46.6c1.4-1.2,2.6-2.7,3.6-4.6c0.6-1.1,1-2.3,1.2-3.5c0.2-1.2,0.1-2.4-0.2-3.9c-0.4-2.1-1.2-4-2.3-5.7
		c-0.9-1.4-2.1-2.8-3.6-4.1c-1.3-1.1-2.8-2.1-4.5-2.8c-1.7-0.7-3.3-1-4.8-0.9c-2.3,0.1-4.4,0.8-6.3,2.1l0.3,0c0.5,0,1,0,1.5,0
		c0.2,0,0.3,0,0.5,0c1.3,0,2.4,0.1,3.4,0.4c2,0.5,3.8,1.3,5.3,2.4c0.9,0.6,1.6,1.2,2.2,1.8c0.4,0.4,0.7,0.7,1.1,1.1
		c0.5,0.5,1,1.2,1.5,1.8c1,1.5,1.7,3.3,2,5.4c0.1,0.9,0.2,1.8,0.3,2.7c0,0.9,0,1.8-0.1,2.6c-0.1,0.4-0.2,0.9-0.3,1.3
		c-0.1,0.2-0.1,0.5-0.2,0.7c-0.3,1.2-0.7,2.4-1.3,3.6c0,0.1-0.1,0.2-0.1,0.3c0.1-0.1,0.2-0.2,0.3-0.3C79.4,46.8,79.6,46.7,79.7,46.6
		z"/>
	<path class="st4" d="M71.7,19.9c0.9,0.2,1.6,0.4,2.3,0.6c-1-0.7-2-1.2-3-1.6c-1.2-0.4-2.2-0.7-3.1-0.8c-1.3-0.2-2.5-0.3-3.8-0.3
		c-0.3,0-0.5,0-0.7,0l-0.1,0c-0.7,0-1.4,0-2.1,0.2c-1.3,0.3-2.4,1-3.3,2c-0.4,0.4-0.8,0.7-1.4,0.9c-0.4,0.1-0.7,0.1-1.1,0.2
		c-0.2,0-0.3,0-0.5,0c-0.2,0-0.3,0-0.5,0.1c-0.3,0-0.7,0.1-1,0.1c-1.1,0.3-1.9,1-2.6,1.8l3.3,0c2.1,0,4.2,0,6.2,0
		c0.4,0,0.6-0.1,0.8-0.3c0.1-0.1,0.1-0.1,0.2-0.2l0.1,0c1.1-1,2.5-1.8,4-2.3C67.7,19.6,69.7,19.5,71.7,19.9z"/>
</g>
</svg>
